<svg width="310" height="13" viewBox="0 0 310 13" fill="none" xmlns="http://www.w3.org/2000/svg">
<path d="M0.870028 0.363636V12H2.18821V3.15909H2.30185L5.93821 12H7.21094L10.8473 3.15909H10.9609V12H12.2791V0.363636H10.5973L6.64276 10.0227H6.50639L2.55185 0.363636H0.870028ZM20.3817 12L21.5521 8.70455H26.2567L27.4271 12H28.9044L24.6317 0.363636H23.1771L18.9044 12H20.3817ZM21.9953 7.45455L23.8589 2.20455H23.9499L25.8135 7.45455H21.9953ZM35.5169 12H42.3351V10.75H36.926V0.363636H35.5169V12ZM50.5286 12L51.699 8.70455H56.4036L57.574 12H59.0513L54.7786 0.363636H53.324L49.0513 12H50.5286ZM52.1422 7.45455L54.0058 2.20455H54.0967L55.9604 7.45455H52.1422ZM69.2547 12C72.8001 12 74.8001 9.79545 74.8001 6.15909C74.8001 2.54545 72.8001 0.363636 69.4138 0.363636H65.6638V12H69.2547ZM67.0729 10.75V1.61364H69.3229C72.0501 1.61364 73.4365 3.34091 73.4365 6.15909C73.4365 9 72.0501 10.75 69.1638 10.75H67.0729ZM83.3729 0.363636H81.9638V12H83.3729V0.363636ZM90.9982 12H98.1118V10.75H92.4072V6.79545H97.6572V5.54545H92.4072V1.61364H98.0209V0.363636H90.9982V12ZM115.23 4.4375C114.906 1.75 112.872 0.204545 110.179 0.204545C107.105 0.204545 104.758 2.375 104.758 6.18182C104.758 9.97727 107.065 12.1591 110.179 12.1591C113.162 12.1591 114.963 10.1761 115.23 8.03409L112.741 8.02273C112.508 9.26705 111.531 9.98295 110.219 9.98295C108.452 9.98295 107.253 8.67045 107.253 6.18182C107.253 3.76136 108.435 2.38068 110.236 2.38068C111.582 2.38068 112.554 3.15909 112.741 4.4375H115.23ZM132.487 6.18182C132.487 2.375 130.124 0.204545 127.038 0.204545C123.936 0.204545 121.59 2.375 121.59 6.18182C121.59 9.97159 123.936 12.1591 127.038 12.1591C130.124 12.1591 132.487 9.98864 132.487 6.18182ZM129.993 6.18182C129.993 8.64773 128.823 9.98295 127.038 9.98295C125.249 9.98295 124.084 8.64773 124.084 6.18182C124.084 3.71591 125.249 2.38068 127.038 2.38068C128.823 2.38068 129.993 3.71591 129.993 6.18182ZM139.11 12H141.57V7.875H143.365L145.57 12H148.286L145.814 7.47727C147.138 6.90909 147.871 5.75568 147.871 4.16477C147.871 1.85227 146.343 0.363636 143.701 0.363636H139.11V12ZM141.57 5.89773V2.375H143.229C144.65 2.375 145.337 3.00568 145.337 4.16477C145.337 5.31818 144.65 5.89773 143.24 5.89773H141.57ZM165.103 6.18182C165.103 2.375 162.739 0.204545 159.654 0.204545C156.552 0.204545 154.205 2.375 154.205 6.18182C154.205 9.97159 156.552 12.1591 159.654 12.1591C162.739 12.1591 165.103 9.98864 165.103 6.18182ZM162.609 6.18182C162.609 8.64773 161.438 9.98295 159.654 9.98295C157.864 9.98295 156.7 8.64773 156.7 6.18182C156.7 3.71591 157.864 2.38068 159.654 2.38068C161.438 2.38068 162.609 3.71591 162.609 6.18182ZM181.458 0.363636H179.01V7.68182H178.907L173.885 0.363636H171.725V12H174.186V4.67614H174.271L179.333 12H181.458V0.363636ZM190.297 12L191.16 9.34659H195.359L196.223 12H198.859L194.848 0.363636H191.677L187.66 12H190.297ZM191.785 7.42614L193.217 3.02273H193.308L194.74 7.42614H191.785ZM205.725 0.363636H202.992L207.009 12H210.179L214.19 0.363636H211.463L208.645 9.20455H208.537L205.725 0.363636ZM222.851 0.363636H220.391V12H222.851V0.363636ZM229.675 12H232.136V7.875H233.931L236.136 12H238.852L236.38 7.47727C237.704 6.90909 238.437 5.75568 238.437 4.16477C238.437 1.85227 236.908 0.363636 234.266 0.363636H229.675V12ZM232.136 5.89773V2.375H233.795C235.215 2.375 235.903 3.00568 235.903 4.16477C235.903 5.31818 235.215 5.89773 233.806 5.89773H232.136ZM252.18 0.363636V7.97159C252.18 9.21591 251.174 9.97159 249.799 9.97159C248.441 9.97159 247.436 9.21591 247.436 7.97159V0.363636H244.975V8.05682C244.975 10.6932 246.975 12.1648 249.799 12.1648C252.612 12.1648 254.623 10.6932 254.623 8.05682V0.363636H252.18ZM267.76 3.71023H270.118C270.084 1.63636 268.379 0.204545 265.788 0.204545C263.237 0.204545 261.368 1.61364 261.379 3.72727C261.373 5.44318 262.584 6.42614 264.55 6.89773L265.817 7.21591C267.084 7.52273 267.788 7.88636 267.794 8.67045C267.788 9.52273 266.981 10.1023 265.731 10.1023C264.453 10.1023 263.533 9.51136 263.453 8.34659H261.072C261.135 10.8636 262.936 12.1648 265.76 12.1648C268.601 12.1648 270.271 10.8068 270.277 8.67614C270.271 6.73864 268.811 5.71023 266.788 5.25568L265.743 5.00568C264.731 4.77273 263.885 4.39773 263.902 3.5625C263.902 2.8125 264.567 2.26136 265.771 2.26136C266.947 2.26136 267.669 2.79545 267.76 3.71023ZM277.982 12.108C278.601 12.108 279.118 11.6023 279.118 10.9716C279.118 10.3523 278.601 9.84091 277.982 9.84091C277.357 9.84091 276.845 10.3523 276.845 10.9716C276.845 11.6023 277.357 12.108 277.982 12.108ZM286.33 12H288.086V6.92614H293.029V5.42045H288.086V1.875H293.546V0.363636H286.33V12ZM300.505 12H302.261V7.59659H304.647C304.687 7.59659 304.721 7.59659 304.761 7.59659L307.124 12H309.124L306.545 7.28977C307.971 6.76136 308.681 5.57386 308.681 4.01136C308.681 1.86932 307.352 0.363636 304.653 0.363636H300.505V12ZM302.261 6.08523V1.86932H304.465C306.198 1.86932 306.914 2.69318 306.914 4.01136C306.914 5.32386 306.198 6.08523 304.488 6.08523H302.261Z" fill="white"/>
</svg>
